<svg xmlns="http://www.w3.org/2000/svg" width="94.155" height="86.662" viewBox="0 0 94.155 86.662">
    <defs>
        <style>.a{fill:#3d3c3c;}</style>
    </defs>
    <g transform="translate(-417.232 -333.376)">
        <path class="a"
              d="M433.952,394.454a2.184,2.184,0,0,0-2.181,2.181v11.7a2.181,2.181,0,1,0,4.362,0v-11.7A2.184,2.184,0,0,0,433.952,394.454Zm77.421-3.7a4.126,4.126,0,0,0-.042-.574l-8.136-49.614a9.326,9.326,0,0,0-2.461-5,7.317,7.317,0,0,0-5.256-2.181H433.141a7.746,7.746,0,0,0-5.494,2.279v.014a7.7,7.7,0,0,0-2.278,5.229l-8.039,48.971a3.793,3.793,0,0,0-.1.881v20.9a8.749,8.749,0,0,0,6.557,8.108l.1.028h.014l.1.028h.014l.1.028.084.028h.014l.1.014h.014l.1.014.112.014.112.027.545.07.21.014h.112l.112.014h77.043a8.79,8.79,0,0,0,8.724-8.724V390.75ZM432.54,341.722a2.739,2.739,0,0,0,.056-.573h.014a.567.567,0,0,1,.14-.377l.014-.014a.571.571,0,0,1,.377-.14h62.337l.126.056a2.024,2.024,0,0,1,.461,1.048l5.2,31.734a5.434,5.434,0,0,0-.671-.042h-72.57a5.267,5.267,0,0,0-.671.042Zm-5.969,36.459a2.689,2.689,0,0,1,1.454-.419h72.57a2.722,2.722,0,0,1,1.454.419l1.1,6.752-.49-.014H425.955l-.489.014Zm77.561,33.132a1.48,1.48,0,0,1-1.468,1.482h-76.75a1.509,1.509,0,0,1-1.426-1.286v-.056l-.014-.014V393.615a1.484,1.484,0,0,1,1.482-1.44h76.708a1.443,1.443,0,0,1,1.035.419h.014l-.014.014a1.477,1.477,0,0,1,.434,1.007Zm-14.385-16.077a7.242,7.242,0,1,0,7.228,7.242A7.282,7.282,0,0,0,489.746,395.237Zm0,10.135a2.894,2.894,0,1,1,2.894-2.894A2.893,2.893,0,0,1,489.746,405.372Zm-39.8-10.918a2.172,2.172,0,0,0-2.167,2.181v11.7a2.167,2.167,0,1,0,4.333,0v-11.7A2.172,2.172,0,0,0,449.945,394.454Zm-8,0a2.172,2.172,0,0,0-2.167,2.181v11.7a2.167,2.167,0,1,0,4.334,0v-11.7A2.172,2.172,0,0,0,441.948,394.454Z"
              transform="translate(0.001 0.001)"/>
    </g>
</svg>
