<svg xmlns="http://www.w3.org/2000/svg" width="104.892" height="89.407" viewBox="0 0 104.892 89.407">
    <defs>
        <style>.a{fill:#3d3c3c;stroke:#3d3c3c;stroke-width:3px;}</style>
    </defs>
    <g transform="translate(-356.6 -655.975)">
        <path class="a"
              d="M444.287,677.447a2.408,2.408,0,1,1,4.439,1.869,43.44,43.44,0,0,1-31.092,25.516c-1.433.279-2.9.513-4.331.669h-.093c-1.449.125-2.882.2-4.284.2a43.08,43.08,0,0,1-30.547-12.648h0a43.072,43.072,0,0,1-12.212-24.316l-3.785,4.643a2.408,2.408,0,1,1-3.739-3.037l7.493-9.223a2.436,2.436,0,0,1,2.009-1.028,2.282,2.282,0,0,1,1.636.655l9.237,7.524a2.408,2.408,0,1,1-3.038,3.738l-5.047-4.1a38.239,38.239,0,0,0,10.857,21.714v.016a38.352,38.352,0,0,0,27.135,11.23,36.343,36.343,0,0,0,3.786-.186h.108a38.315,38.315,0,0,0,3.848-.592,36.63,36.63,0,0,0,3.66-.95,38.506,38.506,0,0,0,22.244-18.2l.094-.17c.623-1.137,1.153-2.259,1.62-3.334Z"
              transform="translate(0 38.178)"/>
        <path class="a"
              d="M363.434,685.747a2.415,2.415,0,0,1-3.146,1.278,2.379,2.379,0,0,1-1.293-3.147,38.214,38.214,0,0,1,1.807-3.753l.109-.187A43.37,43.37,0,0,1,390.1,658.363c1.417-.281,2.866-.514,4.315-.67h.109c1.449-.14,2.866-.218,4.268-.218A43.089,43.089,0,0,1,429.34,670.14h0a43.057,43.057,0,0,1,12.213,24.315l3.785-4.657a2.419,2.419,0,0,1,3.754,3.052l-7.523,9.207a2.4,2.4,0,0,1-1.994,1.043,2.344,2.344,0,0,1-1.651-.653l-9.222-7.523a2.409,2.409,0,0,1,3.038-3.739l5.046,4.113a38.062,38.062,0,0,0-10.873-21.73l.016-.015a38.288,38.288,0,0,0-27.136-11.231c-1.34,0-2.6.062-3.8.171l-.093.015a38.364,38.364,0,0,0-25.718,13.786c-.778.935-1.479,1.886-2.118,2.8l-.094.141c-.67,1-1.292,2.009-1.838,2.991l-.094.186c-.607,1.137-1.153,2.259-1.6,3.333Z"
              transform="translate(10.133 0)"/>
    </g>
</svg>
