<svg xmlns="http://www.w3.org/2000/svg" width="76.119" height="92.317"
     viewBox="0 0 76.119 106.317">
    <defs>
        <style>.a {
            fill: none;
            stroke: #3d3c3c;
            stroke-width: 5px;
            }

            .b, .c {
            fill: #3d3c3c;
            }

            .b {
            font-size: 25px;
            font-family: Lato-Black, Lato;
            font-weight: 800;
            }
        </style>
    </defs>
    <g transform="translate(-1467.617 -1138.538)">
        <g transform="translate(1470.117 1141.038)">
            <path class="a"
                  d="M38.841,0H-6.316A5.093,5.093,0,0,0-11.46,5.039v91.24a5.093,5.093,0,0,0,5.144,5.039H54.515a5.093,5.093,0,0,0,5.144-5.039V20.384a4.983,4.983,0,0,0-1.51-3.564L42.48,1.475A5.207,5.207,0,0,0,38.841,0Z"
                  transform="translate(11.46)"/>
        </g>
        <text class="b" transform="translate(1481.186 1226.714)">
            <tspan x="0" y="0">PDF</tspan>
        </text>
        <g transform="translate(1518.616 1139.392)">
            <path class="c"
                  d="M0,1.632V19.707c-.061,2.133,1.9,3.367,4.051,3.305H22.259a2.775,2.775,0,0,0,1.15-4.67L4.619.294A2.775,2.775,0,0,0,0,1.632"
                  transform="translate(0 0.482)"/>
        </g>
    </g>
</svg>
