<svg xmlns="http://www.w3.org/2000/svg" width="110.011" height="107.297" viewBox="0 0 110.011 107.297"><defs><style>.a{fill:rgba(0,0,0,0);stroke:#3d3c3c;stroke-width:3px;}</style></defs><g transform="translate(1.5 1.54)"><path class="a" d="M46.285,102.2H0V56.7L57.876,0a4.835,4.835,0,0,0-.7,1.759c-.672,3.384,1.281,8.549,5.5,14.546A82.282,82.282,0,0,0,79.5,33.511c8.35,6.414,16.517,10.244,21.848,10.244.327,0,.646-.015.948-.044l.985,1-57,57.484Z" transform="translate(0 2.059)"/><path class="a" d="M0,104.257v-45.5L57.877,2.06C60.959-2.54,72.152.726,84.54,10.242,98.262,20.783,108.261,35,106.871,41.991c-.458,2.3-2.093,3.537-4.571,3.779l.985,1-57,57.484Z" transform="translate(0)"/></g></svg>