<svg xmlns="http://www.w3.org/2000/svg" width="119.619" height="119.623" viewBox="0 0 119.619 119.623"><defs><style>.a{fill:#3d3c3c;}</style></defs><g transform="translate(27.469 43.519)"><path class="a" d="M57.708,1.091-14.6,73.4a1.415,1.415,0,0,0,1,2.416H18.487a1.418,1.418,0,0,0,1-.412L75.754,19.137c2.852-2.847,1.148-8.9-3.975-14.085C66.6-.061,60.555-1.756,57.708,1.091M17.9,72.985H-10.177l66.7-66.7a17.932,17.932,0,0,0,5.21,8.822,17.948,17.948,0,0,0,8.832,5.215ZM73.768,17.109c-1.4,1.433-6,.01-10.028-4.009-4.009-4.014-5.438-8.614-4-10.023s6.023.015,10.042,3.98c3.975,4.029,5.394,8.628,3.99,10.052" transform="translate(15.02 0.284)"/></g><g transform="translate(0.003)"><path class="a" d="M44.974,1.092-11.29,57.361a1.423,1.423,0,0,0-.416,1V90.451a1.418,1.418,0,0,0,2.421,1l72.306-72.31c2.847-2.847,1.152-8.895-3.961-14.076C53.874-.056,47.822-1.76,44.974,1.092M-8.873,87.028V58.949L43.793,6.282a17.937,17.937,0,0,0,5.215,8.827,17.945,17.945,0,0,0,8.822,5.215ZM57.055,7.072c3.966,4.019,5.379,8.614,3.98,10.042s-6.009,0-10.023-4.009S45.57,4.486,47,3.077s6.023.015,10.052,3.995" transform="translate(11.706 0.284)"/></g><g transform="translate(0 3.408)"><path class="a" d="M1.126,92.213H17.172a1.423,1.423,0,0,0,1-.416L114.55-4.583c2.852-2.847,1.143-8.9-3.975-14.085-5.181-5.108-11.229-6.8-14.076-3.961L.123,73.751a1.414,1.414,0,0,0-.416,1V90.795a1.421,1.421,0,0,0,1.419,1.419m97.4-112.852c1.428-1.4,6.023.01,10.042,3.975,3.98,4.029,5.394,8.628,3.99,10.057s-6,.01-10.023-4.014-5.442-8.614-4.009-10.018M2.544,75.339,95.317-17.439a17.9,17.9,0,0,0,5.215,8.822A17.937,17.937,0,0,0,109.359-3.4L16.581,89.381H2.544Z" transform="translate(0.293 24.001)"/></g></svg>