<svg xmlns="http://www.w3.org/2000/svg" width="132.801" height="136.569" viewBox="0 0 132.801 136.569"><defs><style>.a,.b{fill:#3d3c3c;}.a{font-size:24px;font-family:Lato-Bold, Lato;font-weight:700;letter-spacing:0.025em;}</style></defs><text class="a" transform="translate(73.757 131.569)"><tspan x="0" y="0">SNR</tspan></text><g transform="translate(0)"><path class="b" d="M103.381,17.877a3.343,3.343,0,0,0,1.516-.857,3.6,3.6,0,0,0,.973-2.586c.024-1.99-1.114-4.43-3.268-6.6-.048-.053-.1-.092-.155-.145a10.406,10.406,0,0,0-5.777-3.1c0-.029-.015-.068-.015-.092A10.618,10.618,0,0,0,93.43-1.355a10.625,10.625,0,0,0-5.791-3.22,3.85,3.85,0,0,0-3.37.92,3.5,3.5,0,0,0-.843,1.52c-3.07-2.624-6.517-3.312-8.319-1.52L53.784,17.732c-2.876-1.453-6.44-2.726-8.449-.712l-12.967,13L30.62,31.769l-2.4,2.416h-.015l-.053.063-.024.029a1.421,1.421,0,0,0-.31.494l-.015.024h-.015v.015l-1.98,1.976L24.32,38.277l-.533.542-.3.3,0,0h0l-47.161,47.3v0h0l-3.239,3.254v.688h0v36.557a1.622,1.622,0,0,0,1.622,1.622H11.925l2.034-2.068,1.177-1.181h.015L62.282,78.015l1.259-1.259,1.075-1.094,2.164-2.169.015-.015,2.77-2.663,5.186-5.2,9.519-9.553c2.024-2.038.751-5.6-.712-8.469L104.9,26.206c1.787-1.806,1.1-5.249-1.516-8.328M86.564,17.02a.474.474,0,0,1,.31-.068,5.783,5.783,0,0,1,3.138,1.394,11.762,11.762,0,0,1,.983.828c.053.053.1.092.155.145a9.865,9.865,0,0,1,1.67,2.193c.131.223.232.445.324.639.039.1.077.208.116.3a3.379,3.379,0,0,1,.169.518,2.01,2.01,0,0,1,.053.232,1.418,1.418,0,0,1,.01.571.36.36,0,0,1-.063.131c-.024.029-.063.039-.131.068-.024,0-.063.01-.087.01a1.164,1.164,0,0,1-.363-.01.088.088,0,0,1-.053-.015c-.063-.015-.131-.024-.208-.039a1.57,1.57,0,0,1-.218-.053,5.276,5.276,0,0,1-1.026-.4,5.957,5.957,0,0,1-.571-.324c-.2-.116-.4-.247-.62-.4s-.416-.324-.634-.508-.441-.387-.663-.61c-2.213-2.222-2.576-4.314-2.29-4.6m0-9.185c.015-.015.039-.044.063-.044,0,0,0-.01.015,0a.143.143,0,0,1,.063-.01c.015-.015.039-.015.068-.015a.139.139,0,0,1,.077-.015h.039a.748.748,0,0,1,.169.015c.063,0,.116.015.179.015a3.562,3.562,0,0,1,.426.1,6.226,6.226,0,0,1,1.075.445c.015,0,.015.01.029.01s.039.029.048.039a9.743,9.743,0,0,1,2.271,1.7c.01.01.039.024.048.039l.015.015c2.218,2.218,2.566,4.3,2.3,4.585a.509.509,0,0,1-.339.077,4.142,4.142,0,0,1-1.593-.455,9.077,9.077,0,0,1-2.658-1.908c-2.213-2.222-2.576-4.314-2.29-4.6m-.077-8.9A.664.664,0,0,0,86.5-1.2a.355.355,0,0,1,.068-.155c.286-.286,2.368.077,4.585,2.3a10.22,10.22,0,0,1,1.7,2.222c.116.223.218.431.31.639a4.486,4.486,0,0,1,.271.8.764.764,0,0,1,.053.271.136.136,0,0,1,.01.053,1.244,1.244,0,0,1,0,.47.468.468,0,0,1-.063.131.49.49,0,0,1-.324.077,1.38,1.38,0,0,1-.324-.029,1.573,1.573,0,0,1-.4-.092h-.024c-.131-.048-.286-.087-.455-.155h-.01c-.169-.077-.339-.14-.518-.232a10.01,10.01,0,0,1-2.518-1.859,9.276,9.276,0,0,1-.7-.78c-.053-.063-.1-.131-.155-.194-.145-.184-.271-.363-.387-.533-.068-.092-.121-.169-.184-.261-.092-.14-.169-.286-.247-.416-.048-.087-.1-.179-.155-.271-.053-.116-.1-.232-.155-.339a5.069,5.069,0,0,1-.349-1.08c0-.024-.015-.063-.015-.087-.015-.092-.015-.169-.024-.247Zm-9.147,0a.051.051,0,0,1,0-.063.255.255,0,0,1,.01-.092.193.193,0,0,1,.053-.131c.155-.155.818-.1,1.724.286A9.321,9.321,0,0,1,81.979.945a.585.585,0,0,0,.077.077c.2.208.387.416.557.61A8.722,8.722,0,0,1,83.465,2.8c.116.184.223.363.315.547a6.183,6.183,0,0,1,.4.949,2.248,2.248,0,0,1,.092.3,2.926,2.926,0,0,1,.077.431.808.808,0,0,1,.015.179,1.007,1.007,0,0,1-.024.2v.01a.265.265,0,0,1-.068.121c-.155.155-.852.1-1.825-.329a9.267,9.267,0,0,1-2.489-1.724c-.092-.082-.179-.16-.257-.237A9.1,9.1,0,0,1,77.6.18C77.558.088,77.534.01,77.5-.067s-.039-.155-.063-.223a.876.876,0,0,1-.063-.3.787.787,0,0,0-.029-.107,1,1,0,0,1-.01-.169A.512.512,0,0,1,77.326-1c0-.029,0-.053.015-.068m.063,8.9c.131-.131.688-.121,1.462.165a7.719,7.719,0,0,1,1.438.755,9.226,9.226,0,0,1,.818.6,8.924,8.924,0,0,1,.857.78h.01a7.46,7.46,0,0,1,.571.62,9.576,9.576,0,0,1,.881,1.186c.092.14.169.271.247.412.024.039.053.092.077.131.039.092.092.169.131.261s.063.169.1.247a.62.62,0,0,1,.053.116c.048.131.087.232.126.353a3.923,3.923,0,0,1,.169.741.787.787,0,0,1,.015.179.248.248,0,0,1-.015.107v.01a.323.323,0,0,1-.077.223c-.131.14-.673.116-1.438-.169A8.791,8.791,0,0,1,79.7,12.435c-.223-.223-.431-.455-.625-.678s-.349-.441-.5-.649a5.742,5.742,0,0,1-1.244-2.939.485.485,0,0,1,.077-.334M64.432,72.66c.01.019,0,.039.015.058-.01-.019,0-.039-.015-.058m8.023-9.34L61.778,74.011l0,.01h0L59.459,76.34h0L10.651,125.288h-34.32V90.866L25.153,41.9l2.29-2.3,10.5-10.527-.029-.024,0,0h0l0,0L31.554,35.43l-.223.223.218-.218,6.362-6.382,6.8-6.808a24.155,24.155,0,0,0,2.5,5.379A81,81,0,0,0,59.081,42.281,80.273,80.273,0,0,0,73.7,54.168a24,24,0,0,0,5.365,2.523Zm5.728-14.933a1.623,1.623,0,1,0,2.29,2.3l.663-.663c1.346,2.992.852,3.743.852,3.743-.208.2-2.019.392-6.634-2.377A77.7,77.7,0,0,1,61.376,39.981,76.8,76.8,0,0,1,50,25.959c-2.774-4.639-2.581-6.445-2.373-6.638,0,0,.741-.508,3.733.857l-.663.663a1.619,1.619,0,1,0,2.3,2.285L74.619,1.439a11.956,11.956,0,0,0,2,3.249,3.39,3.39,0,0,0-1.516.847L54.133,26.569a1.625,1.625,0,0,0,2.3,2.3l18.191-18.24A12.332,12.332,0,0,0,77.4,14.72a12.123,12.123,0,0,0,4.082,2.794L62.519,36.539a1.623,1.623,0,1,0,2.29,2.3L83.78,19.814a12.188,12.188,0,0,0,2.784,4.091A12.015,12.015,0,0,0,90.656,26.7l-18.2,18.245a1.625,1.625,0,1,0,2.3,2.3L95.735,26.206a3.347,3.347,0,0,0,.843-1.52A11.477,11.477,0,0,0,99.817,26.7ZM102.6,23.906a.464.464,0,0,1-.32.077h-.015a4.129,4.129,0,0,1-1.477-.387c-.194-.092-.4-.194-.625-.315a7.373,7.373,0,0,1-.683-.426c-.116-.077-.237-.169-.353-.261-.242-.179-.489-.387-.736-.61-.131-.116-.247-.232-.378-.363-2.213-2.222-2.576-4.314-2.29-4.6s2.368.077,4.585,2.3c.024.024.039.053.063.077.092.092.169.194.261.286a7.286,7.286,0,0,1,2.034,3.743v.015c.024.247,0,.4-.068.465m0-9.185a.271.271,0,0,1-.14.063.237.237,0,0,0-.092.015,1.808,1.808,0,0,1-.605-.053s0-.01-.015,0a3.3,3.3,0,0,1-.663-.208c-.1-.039-.218-.087-.324-.14a5.827,5.827,0,0,1-.712-.363,5.587,5.587,0,0,1-.775-.523,7.772,7.772,0,0,1-.828-.673c-.145-.131-.286-.261-.431-.4-.048-.053-.092-.107-.14-.16-2.072-2.169-2.426-4.154-2.15-4.44a.256.256,0,0,1,.2-.068c.039,0,.092-.015.145-.015a2.639,2.639,0,0,1,.31.029,1.837,1.837,0,0,1,.349.077c.116.039.247.077.392.131.01,0,.024.01.039.01l.01.015c.015-.015.015,0,.029,0,.087.039.179.068.271.116.179.077.373.184.581.3a.109.109,0,0,1,.077.039.88.88,0,0,0,.092.039.014.014,0,0,0,.015.015.575.575,0,0,1,.087.048c.16.092.315.2.479.315.107.077.2.14.3.223a.17.17,0,0,1,.039.024l.039.039a.088.088,0,0,0,.053.024c.024.039.063.053.087.077s.068.053.092.082c.107.077.194.155.3.247s.218.194.334.3c.029.029.068.053.107.092.01.015.039.039.048.053a.451.451,0,0,1,.107.092,10.578,10.578,0,0,1,.92,1.051c.14.179.257.349.373.518.029.039.053.077.077.116.082.131.16.247.237.368v.01a2.22,2.22,0,0,1,.126.237c.039.077.077.155.116.218a6.293,6.293,0,0,1,.339.833,1.38,1.38,0,0,1,.063.232c.015.015.015.015.015.029a2.228,2.228,0,0,1,.077.373,2.135,2.135,0,0,1,.024.276.488.488,0,0,1-.077.324" transform="translate(26.908 4.653)"/></g></svg>