<svg xmlns="http://www.w3.org/2000/svg" width="127.1" height="129.624" viewBox="0 0 127.1 129.624"><defs><style>.a{fill:#3d3c3c;}.b{fill:none;stroke:#3d3c3c;stroke-linecap:round;stroke-miterlimit:10;stroke-width:2px;}.c{fill:#3d3d3d;}</style></defs><g transform="translate(-469.643 -3075.837)"><path class="a" d="M-4373.295-1243.542h-31.318a1.364,1.364,0,0,1-1.271-.855,1.416,1.416,0,0,1,.293-1.562l70.544-72.276a4.855,4.855,0,0,1,3.58-1.374,11.487,11.487,0,0,1,5.536,1.719l-2.062,2.113a8.22,8.22,0,0,0-3.5-1,2.183,2.183,0,0,0-1.582.526c-1.392,1.406-.015,5.989,3.913,10.018,3.071,3.143,6.33,4.551,8.2,4.551a2.138,2.138,0,0,0,1.584-.542c.84-.872.632-2.97-.531-5.345l2.056-2.106a12.8,12.8,0,0,1,1.746,5.4,5.254,5.254,0,0,1-1.329,4.071l-54.9,56.245A1.339,1.339,0,0,1-4373.295-1243.542Zm37.1-69.507-65.078,66.675h27.392l51.383-52.642c-2.757-.529-5.9-2.429-8.614-5.211a18.192,18.192,0,0,1-5.083-8.822Z" transform="translate(4902.527 4449.001)"/><path class="a" d="M-4404.608-1228a1.391,1.391,0,0,1-1.392-1.418v-32.074a1.43,1.43,0,0,1,.4-1l54.893-56.245a4.855,4.855,0,0,1,3.581-1.376,11.509,11.509,0,0,1,5.582,1.749l-2.06,2.111a8.27,8.27,0,0,0-3.546-1.024,2.184,2.184,0,0,0-1.582.526c-1.393,1.4-.016,5.987,3.913,10.023,3.07,3.143,6.33,4.55,8.2,4.55a2.14,2.14,0,0,0,1.583-.54c.83-.869.631-2.949-.508-5.3l2.058-2.108a12.726,12.726,0,0,1,1.718,5.378,5.26,5.26,0,0,1-1.331,4.053l-70.543,72.281A1.329,1.329,0,0,1-4404.608-1228Zm52.752-85.553-51.38,52.648v28.064l65.072-66.674c-2.746-.524-5.882-2.423-8.6-5.21a22.127,22.127,0,0,1-3.42-4.475,14.024,14.024,0,0,1-1.668-4.352Z" transform="translate(4875.647 4406.001)"/><path class="a" d="M-4388.96-1202.855h-15.655a1.4,1.4,0,0,1-1.384-1.419v-16.037a1.458,1.458,0,0,1,.407-1l94.027-96.332a4.857,4.857,0,0,1,3.579-1.373,11.47,11.47,0,0,1,5.524,1.714l-2.062,2.113a8.207,8.207,0,0,0-3.487-.994,2.177,2.177,0,0,0-1.58.526c-1.391,1.406-.016,5.989,3.908,10.018,3.072,3.143,6.333,4.55,8.2,4.55a2.139,2.139,0,0,0,1.584-.541c.84-.876.629-2.979-.538-5.357l2.056-2.106a12.793,12.793,0,0,1,1.751,5.41,5.252,5.252,0,0,1-1.332,4.076l-94.021,96.336A1.361,1.361,0,0,1-4388.96-1202.855Zm76.237-109.6-90.507,92.735v14.036h13.693l90.512-92.739a13.244,13.244,0,0,1-4.245-1.708,21.71,21.71,0,0,1-4.365-3.5,17.958,17.958,0,0,1-5.088-8.823Z" transform="translate(4875.643 4408.316)"/><g transform="translate(544.131 3077.251)"><path class="b" d="M0,6.75,8.246-1.757" transform="translate(0 1.757)"/></g><g transform="translate(528.442 3080.934)"><path class="c" d="M13.985,2.242C11.322-.46,8.2-1.366,6.746.145L-3.417,10.57a.757.757,0,0,0-.223.537.746.746,0,0,0,.736.755.717.717,0,0,0,.547-.271l8.5-8.72A9.377,9.377,0,0,0,8.818,7.519a9.059,9.059,0,0,0,4.537,2.745L4.819,19.024l0,0a.757.757,0,0,0-.232.542.742.742,0,0,0,.736.751.715.715,0,0,0,.567-.291L16.019,9.645c1.457-1.5.591-4.673-2.034-7.4M15,8.575c-.721.755-3.089,0-5.152-2.111s-2.8-4.537-2.063-5.278,3.094.015,5.166,2.1C14.987,5.408,15.723,7.825,15,8.575" transform="translate(3.64 0.583)"/></g><g transform="translate(584.24 3079.565)"><path class="b" d="M0,6.75,8.246-1.757" transform="translate(0 1.757)"/></g><g transform="translate(568.552 3083.248)"><path class="c" d="M13.985,2.242C11.322-.46,8.2-1.366,6.746.145L-3.417,10.57a.757.757,0,0,0-.223.537.746.746,0,0,0,.736.755.717.717,0,0,0,.547-.271l8.5-8.72A9.377,9.377,0,0,0,8.818,7.519a9.059,9.059,0,0,0,4.537,2.745L4.819,19.024l0,0a.757.757,0,0,0-.232.542.742.742,0,0,0,.736.751.715.715,0,0,0,.567-.291L16.019,9.645c1.457-1.5.591-4.673-2.034-7.4M15,8.575c-.721.755-3.089,0-5.152-2.111s-2.8-4.537-2.063-5.278,3.094.015,5.166,2.1C14.987,5.408,15.723,7.82,15,8.575" transform="translate(3.64 0.583)"/></g><g transform="translate(587.083 3120.25)"><path class="b" d="M0,6.75,8.246-1.757" transform="translate(0 1.757)"/></g><g transform="translate(571.395 3123.933)"><path class="c" d="M13.985,2.242C11.322-.46,8.2-1.366,6.746.145L-3.417,10.57a.757.757,0,0,0-.223.537.746.746,0,0,0,.736.755.717.717,0,0,0,.547-.271l8.5-8.72A9.377,9.377,0,0,0,8.818,7.519a9.059,9.059,0,0,0,4.537,2.745L4.819,19.024l0,0a.757.757,0,0,0-.232.542.742.742,0,0,0,.736.751.715.715,0,0,0,.567-.291L16.019,9.645c1.457-1.5.591-4.673-2.034-7.4M15,8.575c-.721.755-3.089,0-5.152-2.111s-2.8-4.537-2.063-5.278,3.094.015,5.166,2.1C14.987,5.408,15.723,7.825,15,8.575" transform="translate(3.64 0.583)"/></g></g></svg>